<svg {{$attributes}} xmlns="http://www.w3.org/2000/svg" viewBox="0 0 460.27 111.08"><defs><style>.cls-1{fill:#404040;}.cls-2{fill:#ec1c28;}.cls-3{fill:#f9ac20;}</style></defs><g id="Livello_2" data-name="Livello 2"><g id="Livello_1-2" data-name="Livello 1"><path class="cls-1" d="M158.34,24.21a10.84,10.84,0,0,1,5.4,1.28,10.47,10.47,0,0,1,3.78,3.76l-2.41,1.88a8.43,8.43,0,0,0-3-3.26,8,8,0,0,0-4-1,8,8,0,0,0-3.15.54,4,4,0,0,0-1.82,1.43,3.56,3.56,0,0,0-.57,2,3.37,3.37,0,0,0,.79,2.22,5.79,5.79,0,0,0,3.17,1.49l5.14,1.15A8.85,8.85,0,0,1,166.38,38a5.54,5.54,0,0,1,1.35,3.8,5.92,5.92,0,0,1-1.13,3.58,7.41,7.41,0,0,1-3.19,2.43,12.28,12.28,0,0,1-4.82.86A13.49,13.49,0,0,1,154,48a10.8,10.8,0,0,1-5.67-4.55l2.53-2a8.75,8.75,0,0,0,1.76,2.41,7.69,7.69,0,0,0,2.61,1.62,11.26,11.26,0,0,0,6.69.12A4.39,4.39,0,0,0,164,44.21a3.32,3.32,0,0,0,.71-2.14A3.18,3.18,0,0,0,164,40a5.11,5.11,0,0,0-2.84-1.39l-5.58-1.26A10.78,10.78,0,0,1,152,36a5.44,5.44,0,0,1-2-2.09,5.88,5.88,0,0,1-.59-2.61,6.21,6.21,0,0,1,1.06-3.51,7.44,7.44,0,0,1,3.06-2.57A10.72,10.72,0,0,1,158.34,24.21Z"/><path class="cls-1" d="M180.69,30a9,9,0,0,1,4.52,1.12,7.85,7.85,0,0,1,3.08,3.22,10.66,10.66,0,0,1,1.11,5,10.67,10.67,0,0,1-1.11,5,7.91,7.91,0,0,1-3.08,3.22,9.72,9.72,0,0,1-9,0,7.81,7.81,0,0,1-3.09-3.22,10.55,10.55,0,0,1-1.12-5,10.54,10.54,0,0,1,1.12-5,7.75,7.75,0,0,1,3.09-3.22A9,9,0,0,1,180.69,30Zm0,2.49a5.62,5.62,0,0,0-3.13.83,5.39,5.39,0,0,0-2,2.35,8.77,8.77,0,0,0-.7,3.69,8.85,8.85,0,0,0,.7,3.68,5.39,5.39,0,0,0,2,2.37,6.32,6.32,0,0,0,6.26,0,5.32,5.32,0,0,0,2-2.37,8.85,8.85,0,0,0,.7-3.68,8.77,8.77,0,0,0-.7-3.69,5.32,5.32,0,0,0-2-2.35A5.6,5.6,0,0,0,180.69,32.46Z"/><path class="cls-1" d="M204.81,30.33v2.49H192.32V30.33Zm-3-8.46a7.15,7.15,0,0,1,1.77.22,3.23,3.23,0,0,1,1.29.61L204.13,25a2.92,2.92,0,0,0-.94-.41,4.28,4.28,0,0,0-1.11-.13,3.63,3.63,0,0,0-2.42.74,3,3,0,0,0-.86,2.36V48.33h-2.88v-21a6.55,6.55,0,0,1,.36-2.2,4.5,4.5,0,0,1,1.1-1.72,5,5,0,0,1,1.85-1.12A7.87,7.87,0,0,1,201.82,21.87Z"/><path class="cls-1" d="M217.67,30.33v2.49h-13V30.33Zm-6.56-5.11V43.37a2.47,2.47,0,0,0,.76,2,2.87,2.87,0,0,0,1.94.64,4.13,4.13,0,0,0,1.8-.36,4.82,4.82,0,0,0,1.37-1l1,2.41a6.06,6.06,0,0,1-2,1.19,7.29,7.29,0,0,1-2.61.43,6.74,6.74,0,0,1-2.56-.48A4.1,4.1,0,0,1,209,46.66a5.23,5.23,0,0,1-.74-2.79V26Z"/><path class="cls-1" d="M244.52,30.33h3.2l-6.26,18h-2.88L233.5,34l-4.78,14.32h-2.88l-6.27-18h3.21L227.31,45l4.9-14.66h2.88L240,45Z"/><path class="cls-1" d="M262.16,36.71a4.26,4.26,0,0,0-1.08-3.12,4.11,4.11,0,0,0-3.06-1.1,5.88,5.88,0,0,0-3.17.81,4.7,4.7,0,0,0-1.9,2.61l-2.34-1.44a6.28,6.28,0,0,1,2.66-3.25A8.77,8.77,0,0,1,258.09,30a9.07,9.07,0,0,1,3.53.67,5.49,5.49,0,0,1,2.5,2,6,6,0,0,1,.92,3.47v8.71c0,.87.46,1.3,1.37,1.3a5,5,0,0,0,1.33-.18l-.14,2.27a4.21,4.21,0,0,1-1.87.36,4.36,4.36,0,0,1-1.88-.4A2.9,2.9,0,0,1,262.56,47a3.91,3.91,0,0,1-.47-2v-.36l.72.11A4.71,4.71,0,0,1,261.33,47a6.73,6.73,0,0,1-2.34,1.3,8.19,8.19,0,0,1-2.55.41,7.93,7.93,0,0,1-2.95-.54,4.81,4.81,0,0,1-2.18-1.63,4.86,4.86,0,0,1,.54-6.05,7.16,7.16,0,0,1,3.76-1.78l7.13-1.41v2.38l-5.8,1.19a6.78,6.78,0,0,0-2.63,1,2.16,2.16,0,0,0-.86,1.8,2.21,2.21,0,0,0,.88,1.82,3.92,3.92,0,0,0,2.5.7,7.26,7.26,0,0,0,2-.27,5.21,5.21,0,0,0,1.71-.82,4,4,0,0,0,1.19-1.41,4.31,4.31,0,0,0,.43-2Z"/><path class="cls-1" d="M272,48.33v-18h2.34l.4,3A5.24,5.24,0,0,1,277,30.8a7.14,7.14,0,0,1,3.55-.83,8,8,0,0,1,1,.08,2.59,2.59,0,0,1,.95.28L282,33a4.61,4.61,0,0,0-.87-.21,8.76,8.76,0,0,0-1.33-.08,4.55,4.55,0,0,0-2.25.65,5.1,5.1,0,0,0-1.89,2,6.67,6.67,0,0,0-.76,3.33v9.72Z"/><path class="cls-1" d="M293.66,48.69a9.21,9.21,0,0,1-4.55-1.11A7.87,7.87,0,0,1,286,44.36a10.67,10.67,0,0,1-1.11-5,10.66,10.66,0,0,1,1.11-5,7.93,7.93,0,0,1,3.06-3.22A8.78,8.78,0,0,1,293.48,30a8.15,8.15,0,0,1,4.3,1.08A7.08,7.08,0,0,1,300.5,34a9.13,9.13,0,0,1,.94,4.16c0,.4,0,.78,0,1.11a6.92,6.92,0,0,1-.11.9H286.75V37.61H300l-1.47.28a5.35,5.35,0,0,0-1.43-4,5,5,0,0,0-3.72-1.41,5.54,5.54,0,0,0-3,.81,5.26,5.26,0,0,0-2,2.34,8.77,8.77,0,0,0-.7,3.69A8.69,8.69,0,0,0,288.4,43a5.29,5.29,0,0,0,2,2.35,5.86,5.86,0,0,0,3.15.81,6.16,6.16,0,0,0,3.22-.75,5.86,5.86,0,0,0,2-2.05l2.27,1.33a7.6,7.6,0,0,1-4.23,3.51A9.94,9.94,0,0,1,293.66,48.69Z"/><path class="cls-1" d="M322.6,24.57V48.33h-2.88V24.57Zm14.22,10.37v2.7H321.24v-2.7Zm1.55-10.37V48.33h-2.88V24.57Z"/><path class="cls-1" d="M352.84,48.69a9.21,9.21,0,0,1-4.55-1.11,7.79,7.79,0,0,1-3.11-3.22,10.55,10.55,0,0,1-1.12-5,10.54,10.54,0,0,1,1.12-5,7.8,7.8,0,0,1,3.06-3.22A8.75,8.75,0,0,1,352.66,30,8.18,8.18,0,0,1,357,31.05,7.12,7.12,0,0,1,359.68,34a9,9,0,0,1,.94,4.16c0,.4,0,.78,0,1.11s-.06.64-.1.9H345.93V37.61h13.29l-1.48.28a5.35,5.35,0,0,0-1.42-4,5.07,5.07,0,0,0-3.73-1.41,5.57,5.57,0,0,0-3,.81,5.33,5.33,0,0,0-2,2.34,8.77,8.77,0,0,0-.7,3.69,8.69,8.69,0,0,0,.72,3.68,5.33,5.33,0,0,0,2,2.35,5.91,5.91,0,0,0,3.15.81,6.14,6.14,0,0,0,3.22-.75,5.78,5.78,0,0,0,2-2.05l2.27,1.33a7.78,7.78,0,0,1-1.75,2.12A7.59,7.59,0,0,1,356,48.21,9.94,9.94,0,0,1,352.84,48.69Z"/><path class="cls-1" d="M366.09,48.33v-18h2.34l.4,3A5.24,5.24,0,0,1,371,30.8a7.11,7.11,0,0,1,3.55-.83,7.72,7.72,0,0,1,1,.08,2.64,2.64,0,0,1,1,.28L376.06,33a4.33,4.33,0,0,0-.86-.21,8.86,8.86,0,0,0-1.33-.08,4.5,4.5,0,0,0-2.25.65,5.1,5.1,0,0,0-1.89,2,6.56,6.56,0,0,0-.76,3.33v9.72Z"/><path class="cls-1" d="M382.22,26.88a2,2,0,0,1-2.16-2.16,2,2,0,0,1,2.16-2.16,2,2,0,0,1,2.16,2.16,2.06,2.06,0,0,1-2.16,2.16Zm1.44,3.45v18h-2.88v-18Z"/><path class="cls-1" d="M401.16,30.33v2.49h-13V30.33Zm-6.56-5.11V43.37a2.5,2.5,0,0,0,.76,2,2.87,2.87,0,0,0,1.94.64,4.13,4.13,0,0,0,1.8-.36,4.82,4.82,0,0,0,1.37-1l1,2.41a6.06,6.06,0,0,1-2,1.19,7.29,7.29,0,0,1-2.61.43,6.74,6.74,0,0,1-2.56-.48,4.1,4.1,0,0,1-1.89-1.55,5.23,5.23,0,0,1-.74-2.79V26Z"/><path class="cls-1" d="M416,36.71a4.26,4.26,0,0,0-1.08-3.12,4.11,4.11,0,0,0-3.06-1.1,5.88,5.88,0,0,0-3.17.81,4.7,4.7,0,0,0-1.9,2.61l-2.34-1.44a6.28,6.28,0,0,1,2.66-3.25A8.77,8.77,0,0,1,411.88,30a9.07,9.07,0,0,1,3.53.67,5.49,5.49,0,0,1,2.5,2,6,6,0,0,1,.92,3.47v8.71c0,.87.46,1.3,1.37,1.3a5,5,0,0,0,1.33-.18l-.14,2.27a4.21,4.21,0,0,1-1.87.36,4.39,4.39,0,0,1-1.88-.4A2.9,2.9,0,0,1,416.35,47a3.91,3.91,0,0,1-.47-2v-.36l.72.11A4.71,4.71,0,0,1,415.12,47a6.73,6.73,0,0,1-2.34,1.3,8.19,8.19,0,0,1-2.55.41,7.93,7.93,0,0,1-3-.54,4.81,4.81,0,0,1-2.18-1.63,4.86,4.86,0,0,1,.54-6.05,7.16,7.16,0,0,1,3.76-1.78l7.13-1.41v2.38l-5.8,1.19a6.78,6.78,0,0,0-2.63,1,2.16,2.16,0,0,0-.86,1.8,2.21,2.21,0,0,0,.88,1.82,3.92,3.92,0,0,0,2.5.7,7.26,7.26,0,0,0,2-.27,5.21,5.21,0,0,0,1.71-.82,4,4,0,0,0,1.19-1.41,4.31,4.31,0,0,0,.43-2Z"/><path class="cls-1" d="M435.5,46a6.16,6.16,0,0,1,4,1.17,3.81,3.81,0,0,1,1.44,3.11,4.4,4.4,0,0,1-1.17,3.06,7.49,7.49,0,0,1-3.13,2,13,13,0,0,1-4.41.7q-4.25,0-6.35-1.44a4.13,4.13,0,0,1-2.11-3.45,3.9,3.9,0,0,1,1-2.58,4.38,4.38,0,0,1,3.22-1.27l-.25.54a4.91,4.91,0,0,1-2.07-1.1,2.89,2.89,0,0,1-.85-2.25,3.42,3.42,0,0,1,1.1-2.54,5.41,5.41,0,0,1,3.26-1.31l1.9,1h-.36a4.23,4.23,0,0,0-2.5.88,2.11,2.11,0,0,0-.74,1.53,1.66,1.66,0,0,0,.74,1.49,3.68,3.68,0,0,0,2.07.49ZM431.93,30a9,9,0,0,1,3.84.78,6.3,6.3,0,0,1,2.61,2.14,5.83,5.83,0,0,1,0,6.32,6.34,6.34,0,0,1-2.61,2.16,9.17,9.17,0,0,1-3.84.77,7.93,7.93,0,0,1-5.47-1.71,5.62,5.62,0,0,1-1.91-4.37,5.38,5.38,0,0,1,1-3.17,6.3,6.3,0,0,1,2.61-2.14A8.82,8.82,0,0,1,431.93,30Zm.26,23.69a11.38,11.38,0,0,0,3.43-.43,4.65,4.65,0,0,0,2-1.12,2.1,2.1,0,0,0,.65-1.47,1.84,1.84,0,0,0-.77-1.55,5,5,0,0,0-2.79-.58h-5.55a3.11,3.11,0,0,0-1.94.6,1.92,1.92,0,0,0-.79,1.64A2.39,2.39,0,0,0,428,52.87,9.29,9.29,0,0,0,432.19,53.66Zm-.26-21.35a4.83,4.83,0,0,0-3.13,1,3.54,3.54,0,0,0,0,5.42,5.25,5.25,0,0,0,6.27,0,3.54,3.54,0,0,0,0-5.42A4.84,4.84,0,0,0,431.93,32.31ZM441,27l.65,2.56h-.25a4.5,4.5,0,0,0-2.72.7,2.6,2.6,0,0,0-1,2.25l-1.76-.9a4.57,4.57,0,0,1,.65-2.45,4.32,4.32,0,0,1,1.76-1.6,5.44,5.44,0,0,1,2.45-.56H441Z"/><path class="cls-1" d="M452.49,48.69a9.21,9.21,0,0,1-4.55-1.11,7.87,7.87,0,0,1-3.12-3.22,10.67,10.67,0,0,1-1.11-5,10.66,10.66,0,0,1,1.11-5,7.93,7.93,0,0,1,3.06-3.22A8.78,8.78,0,0,1,452.31,30a8.15,8.15,0,0,1,4.3,1.08A7.08,7.08,0,0,1,459.33,34a9.13,9.13,0,0,1,.94,4.16c0,.4,0,.78,0,1.11a6.92,6.92,0,0,1-.11.9H445.58V37.61h13.28l-1.47.28a5.35,5.35,0,0,0-1.43-4,5,5,0,0,0-3.72-1.41,5.54,5.54,0,0,0-3,.81,5.26,5.26,0,0,0-2,2.34,8.77,8.77,0,0,0-.7,3.69,8.54,8.54,0,0,0,.72,3.68,5.21,5.21,0,0,0,2,2.35,5.88,5.88,0,0,0,3.15.81,6.16,6.16,0,0,0,3.22-.75,5.86,5.86,0,0,0,2-2.05l2.27,1.33a7.6,7.6,0,0,1-4.23,3.51A9.94,9.94,0,0,1,452.49,48.69Z"/><path class="cls-1" d="M147.13,83.87l6.27-17.16h4.29L164,83.87h-3.72l-3.92-11.68-.78-2.6h-.05l-.73,2.55-4,11.73Zm3.69-4.19V77h9.41v2.65Z"/><path class="cls-1" d="M166.13,83.87v-13h3.2l.21,3.9-.44-.42a5.26,5.26,0,0,1,1-2.1A4.1,4.1,0,0,1,171.74,71a5.51,5.51,0,0,1,2.14-.4,5.34,5.34,0,0,1,2.41.52A3.92,3.92,0,0,1,178,72.7a5.16,5.16,0,0,1,.61,2.64v8.53H175V76.35a3.21,3.21,0,0,0-.65-2.3,2.33,2.33,0,0,0-1.69-.63,3,3,0,0,0-1.42.35,2.58,2.58,0,0,0-1.11,1.13A4.26,4.26,0,0,0,169.7,77v6.89Z"/><path class="cls-1" d="M189.64,75.57a2.17,2.17,0,0,0-2.32-2.36,2.94,2.94,0,0,0-1.69.49,2.88,2.88,0,0,0-1.06,1.64l-3-.94a4.68,4.68,0,0,1,1.93-2.75,6.89,6.89,0,0,1,4-1,7.83,7.83,0,0,1,3,.53,4.4,4.4,0,0,1,2,1.6,4.67,4.67,0,0,1,.71,2.68V80.7c0,.66.32,1,.94,1a2.53,2.53,0,0,0,.83-.13l-.21,2.21a3.69,3.69,0,0,1-1.69.34,4.05,4.05,0,0,1-1.63-.31,2.5,2.5,0,0,1-1.15-1,2.92,2.92,0,0,1-.41-1.6v-.1l.62-.11a2.9,2.9,0,0,1-.86,1.68,4.61,4.61,0,0,1-1.7,1.05,5.87,5.87,0,0,1-2.07.37,6.13,6.13,0,0,1-2.29-.4,3.26,3.26,0,0,1-1.48-1.19,3.44,3.44,0,0,1-.52-1.92,3.17,3.17,0,0,1,.94-2.38A5,5,0,0,1,185.17,77l4.88-1,0,2.21-3.12.62a4.33,4.33,0,0,0-1.34.48,1.1,1.1,0,0,0-.46,1,1.13,1.13,0,0,0,.49,1,2,2,0,0,0,1.15.34,4.75,4.75,0,0,0,1.07-.13,2.92,2.92,0,0,0,.93-.42,1.85,1.85,0,0,0,.65-.78,2.73,2.73,0,0,0,.24-1.2Z"/><path class="cls-1" d="M200.66,65.17V79.86a2,2,0,0,0,.31,1.28,1.32,1.32,0,0,0,1,.36,3.62,3.62,0,0,0,.73-.06c.19,0,.44-.11.73-.2l-.31,2.34a3.78,3.78,0,0,1-1.11.41,6.56,6.56,0,0,1-1.31.14A3.63,3.63,0,0,1,198,83.2a4.18,4.18,0,0,1-.87-3V65.17Z"/><path class="cls-1" d="M217.15,70.87l-5.26,13.8a10.64,10.64,0,0,1-1.39,2.81A4.71,4.71,0,0,1,208.74,89a5.61,5.61,0,0,1-2.38.47,6.39,6.39,0,0,1-1.86-.25,5.52,5.52,0,0,1-1.47-.64l.75-2.57a3.2,3.2,0,0,0,1,.56,4.34,4.34,0,0,0,1.25.17,2.5,2.5,0,0,0,1.26-.31,2.37,2.37,0,0,0,.9-1.25l.44-1.12-1.43-3.38-4-9.8h4l2.47,7.8.68,2.6.81-2.76,2.36-7.64Z"/><path class="cls-1" d="M227.88,70.87v2.65H217.77V70.87Zm-4.16-4V79.63A1.73,1.73,0,0,0,224.2,81a1.91,1.91,0,0,0,1.32.43,3.1,3.1,0,0,0,1.14-.19,3.18,3.18,0,0,0,.89-.53l.57,2.36a4.75,4.75,0,0,1-1.56.78,6.77,6.77,0,0,1-2,.29,6.3,6.3,0,0,1-2.3-.39,3.18,3.18,0,0,1-1.56-1.25,4.15,4.15,0,0,1-.56-2.29V67.88Z"/><path class="cls-1" d="M232.1,69a2.48,2.48,0,0,1-1.67-.48,2.16,2.16,0,0,1,0-2.86,2.43,2.43,0,0,1,1.67-.49,2.4,2.4,0,0,1,1.66.49,2.13,2.13,0,0,1,0,2.86A2.46,2.46,0,0,1,232.1,69Zm1.76,1.87v13H230.3v-13Z"/><path class="cls-1" d="M243.54,70.61a7.61,7.61,0,0,1,3,.51,5.09,5.09,0,0,1,1.95,1.37,5.32,5.32,0,0,1,1.05,1.94l-3.33,1.2a3.44,3.44,0,0,0-.88-1.77,2.34,2.34,0,0,0-1.69-.6,3,3,0,0,0-1.69.45,2.84,2.84,0,0,0-1.07,1.38,6.42,6.42,0,0,0-.36,2.3,6.07,6.07,0,0,0,.37,2.29,2.78,2.78,0,0,0,1.1,1.35,3,3,0,0,0,1.67.45,3,3,0,0,0,1.33-.28,2.35,2.35,0,0,0,.9-.79,3.33,3.33,0,0,0,.48-1.25l3.22,1a4.77,4.77,0,0,1-1.06,2.06,5.21,5.21,0,0,1-2,1.37,8.19,8.19,0,0,1-6.37-.31A5.65,5.65,0,0,1,237.74,81a8.31,8.31,0,0,1,0-7.28,5.63,5.63,0,0,1,2.34-2.32A7.3,7.3,0,0,1,243.54,70.61Z"/><path class="cls-1" d="M257.5,84.13a9.1,9.1,0,0,1-3.6-.7,6.63,6.63,0,0,1-2.64-2l2.05-2.08a4.83,4.83,0,0,0,4.14,2.13,3.72,3.72,0,0,0,1.62-.3,1,1,0,0,0,.61-1,1,1,0,0,0-.28-.71,2.35,2.35,0,0,0-1.15-.48L256,78.59a6.32,6.32,0,0,1-3.21-1.42,3.32,3.32,0,0,1-.95-2.45,3.57,3.57,0,0,1,.64-2,4.51,4.51,0,0,1,1.91-1.52,7.61,7.61,0,0,1,3.17-.58,8.67,8.67,0,0,1,3.4.61A5.12,5.12,0,0,1,263.19,73l-2.13,2.08a3.88,3.88,0,0,0-1.5-1.4,4.12,4.12,0,0,0-1.93-.48,4.52,4.52,0,0,0-1.25.16,1.7,1.7,0,0,0-.78.43,1,1,0,0,0-.26.69.9.9,0,0,0,.36.71,3.38,3.38,0,0,0,1.33.51l2.65.55a5,5,0,0,1,2.76,1.31,3.22,3.22,0,0,1,.83,2.22,3.87,3.87,0,0,1-.66,2.22,4.41,4.41,0,0,1-1.95,1.54A8,8,0,0,1,257.5,84.13Z"/><path class="cls-1" d="M287.27,69.59H278V74h7.31v2.89H278v7h-3.59V66.71h12.85Z"/><path class="cls-1" d="M289.32,83.87v-13h3.09l.24,2.55a4.41,4.41,0,0,1,1.52-2.08,4.12,4.12,0,0,1,2.51-.73,3.48,3.48,0,0,1,.81.08,2.25,2.25,0,0,1,.59.2l-.41,3a3.18,3.18,0,0,0-.64-.15,6.6,6.6,0,0,0-1,0,3.21,3.21,0,0,0-1.51.37,3,3,0,0,0-1.2,1.15,3.65,3.65,0,0,0-.47,1.93v6.74Z"/><path class="cls-1" d="M307.47,75.57a2.17,2.17,0,0,0-2.32-2.36,2.89,2.89,0,0,0-1.68.49,2.84,2.84,0,0,0-1.07,1.64l-3-.94a4.68,4.68,0,0,1,1.93-2.75,6.89,6.89,0,0,1,4-1,7.83,7.83,0,0,1,3,.53,4.4,4.4,0,0,1,2,1.6,4.67,4.67,0,0,1,.72,2.68V80.7c0,.66.31,1,.93,1a2.49,2.49,0,0,0,.83-.13l-.2,2.21a3.74,3.74,0,0,1-1.69.34,4.07,4.07,0,0,1-1.64-.31,2.5,2.5,0,0,1-1.15-1,2.92,2.92,0,0,1-.41-1.6v-.1l.62-.11a2.9,2.9,0,0,1-.86,1.68,4.53,4.53,0,0,1-1.7,1.05,5.87,5.87,0,0,1-2.07.37,6,6,0,0,1-2.28-.4,3.24,3.24,0,0,1-1.49-1.19,3.44,3.44,0,0,1-.52-1.92,3.21,3.21,0,0,1,.94-2.38A5,5,0,0,1,303,77l4.89-1,0,2.21-3.12.62a4.33,4.33,0,0,0-1.34.48,1.09,1.09,0,0,0-.45,1,1.15,1.15,0,0,0,.48,1,2,2,0,0,0,1.15.34,4.75,4.75,0,0,0,1.07-.13,3,3,0,0,0,.94-.42,2,2,0,0,0,.65-.78,2.89,2.89,0,0,0,.23-1.2Z"/><path class="cls-1" d="M315,83.87v-13h3.2l.13,2.34a4.46,4.46,0,0,1,1.78-1.95,4.89,4.89,0,0,1,2.51-.65,5,5,0,0,1,2.54.65,4,4,0,0,1,1.7,1.92A4.17,4.17,0,0,1,328,71.75a5,5,0,0,1,1.56-.86,5.46,5.46,0,0,1,1.74-.28,5.17,5.17,0,0,1,2.33.52,3.92,3.92,0,0,1,1.67,1.56,5,5,0,0,1,.63,2.65v8.53h-3.57V76a2.73,2.73,0,0,0-.62-2,2.26,2.26,0,0,0-1.61-.59,2.78,2.78,0,0,0-1.44.39,2.59,2.59,0,0,0-1,1.15,4.2,4.2,0,0,0-.38,1.91v7h-3.56V76a2.73,2.73,0,0,0-.64-2,2.31,2.31,0,0,0-1.63-.59,2.78,2.78,0,0,0-2.43,1.5,4.35,4.35,0,0,0-.43,2.06v6.89Z"/><path class="cls-1" d="M345.59,84.13a7.51,7.51,0,0,1-3.58-.81A5.69,5.69,0,0,1,339.66,81a8.31,8.31,0,0,1,0-7.28A5.7,5.7,0,0,1,342,71.41a7.19,7.19,0,0,1,3.42-.8,6.63,6.63,0,0,1,3.36.79,5.32,5.32,0,0,1,2.1,2.16,6.43,6.43,0,0,1,.73,3.11c0,.34,0,.67,0,1s-.05.59-.08.84H341.11V76h8.82l-1.72.62a3.84,3.84,0,0,0-.74-2.52,2.57,2.57,0,0,0-2.09-.89,3.09,3.09,0,0,0-1.71.47,2.87,2.87,0,0,0-1.07,1.39,6.25,6.25,0,0,0-.37,2.33,5.58,5.58,0,0,0,.4,2.28A2.85,2.85,0,0,0,343.78,81a3.86,3.86,0,0,0,3.62,0,3,3,0,0,0,1.1-1.22l2.83,1.09a4.65,4.65,0,0,1-1.26,1.75,5.79,5.79,0,0,1-2,1.1A8,8,0,0,1,345.59,84.13Z"/><path class="cls-1" d="M371,70.87h3.8l-4.16,13h-4.11L363.71,75,361,83.87h-4.11l-4.16-13h3.79l2.61,10,2.88-10h3.54l2.91,10Z"/><path class="cls-1" d="M382.58,70.61a7.26,7.26,0,0,1,3.47.8,5.74,5.74,0,0,1,2.34,2.32,8.18,8.18,0,0,1,0,7.26,5.71,5.71,0,0,1-2.34,2.33,7.82,7.82,0,0,1-6.93,0A5.73,5.73,0,0,1,376.77,81a8.26,8.26,0,0,1,0-7.26,5.77,5.77,0,0,1,2.35-2.32A7.33,7.33,0,0,1,382.58,70.61Zm0,2.65a3,3,0,0,0-1.67.45,2.92,2.92,0,0,0-1.06,1.37,7.46,7.46,0,0,0,0,4.58A2.89,2.89,0,0,0,380.91,81a3.23,3.23,0,0,0,3.32,0,2.89,2.89,0,0,0,1.06-1.36,7.46,7.46,0,0,0,0-4.58,2.92,2.92,0,0,0-1.06-1.37A3,3,0,0,0,382.58,73.26Z"/><path class="cls-1" d="M392.23,83.87v-13h3.09l.24,2.55a4.34,4.34,0,0,1,1.52-2.08,4.1,4.1,0,0,1,2.51-.73,3.34,3.34,0,0,1,.8.08,2.33,2.33,0,0,1,.6.2l-.42,3a2.92,2.92,0,0,0-.63-.15,6.67,6.67,0,0,0-1,0,3.27,3.27,0,0,0-1.51.37,3,3,0,0,0-1.19,1.15,3.65,3.65,0,0,0-.47,1.93v6.74Z"/><path class="cls-1" d="M406.76,65.17v18.7H403.2V65.17Zm9.68,5.7-6,6.26-.7.34-3.9,4.19-.05-3.8,6.6-7ZM410.92,75l5.83,8.87h-4l-4.24-6.79Z"/><polygon class="cls-2" points="79.82 45.37 70.2 40.5 79.82 35.61 79.82 31.31 61.72 40.5 79.82 49.67 79.82 45.37"/><polygon class="cls-2" points="98.44 45.37 108.06 40.5 98.44 35.61 98.44 31.31 116.54 40.5 98.44 49.67 98.44 45.37"/><polygon class="cls-2" points="90.81 28.88 83.44 52.82 87.45 52.82 94.82 28.88 90.81 28.88"/><polygon class="cls-2" points="67.89 66.59 64.54 56.35 74.79 59.7 77.83 56.65 58.54 50.35 64.85 69.64 67.89 66.59"/><polygon class="cls-2" points="81.06 79.76 91.31 83.12 87.96 72.86 91 69.82 97.3 89.12 78.02 82.8 81.06 79.76"/><polygon class="cls-2" points="87.32 62.71 65.18 74.43 68.02 77.26 90.16 65.55 87.32 62.71"/><polygon class="cls-2" points="43.84 74.36 48.72 64.75 53.6 74.36 57.9 74.36 48.71 56.26 39.55 74.36 43.84 74.36"/><polygon class="cls-2" points="43.84 92.98 48.72 102.6 53.6 92.98 57.9 92.98 48.71 111.08 39.55 92.98 43.84 92.98"/><polygon class="cls-2" points="60.33 85.35 36.39 77.98 36.39 82 60.33 89.36 60.33 85.35"/><polygon class="cls-2" points="22.52 60.79 32.77 57.43 29.42 67.69 32.47 70.73 38.77 51.43 19.48 57.75 22.52 60.79"/><polygon class="cls-2" points="9.36 73.96 6 84.2 16.25 80.85 19.3 83.9 0 90.2 6.32 70.92 9.36 73.96"/><polygon class="cls-2" points="26.41 80.21 14.69 58.08 11.86 60.92 23.57 83.05 26.41 80.21"/><polygon class="cls-3" points="112.72 7.86 116.87 0.1 108.08 0.39 112.72 7.86"/><polygon class="cls-3" points="112.36 8.43 116.87 0 107.31 0.31 112.36 8.43"/><polygon class="cls-3" points="110.01 2 88.9 15.11 67.84 15.31 48.58 31.5 22.76 31.85 0 52.16 0 57.3 24.25 35.66 50.01 35.32 69.26 19.14 90.01 18.94 112.03 5.26 110.01 2"/></g></g></svg>
