<svg {{$attributes}} xmlns="http://www.w3.org/2000/svg" viewBox="0 0 116.87 111.08"><defs><style>.cls-1{fill:#ec1c28;}.cls-2{fill:#f9ac20;}</style></defs><g id="Livello_2" data-name="Livello 2"><g id="Livello_1-2" data-name="Livello 1"><polygon class="cls-1" points="79.82 45.37 70.2 40.5 79.82 35.61 79.82 31.31 61.72 40.5 79.82 49.67 79.82 45.37"/><polygon class="cls-1" points="98.44 45.37 108.06 40.5 98.44 35.61 98.44 31.31 116.54 40.5 98.44 49.67 98.44 45.37"/><polygon class="cls-1" points="90.81 28.88 83.44 52.82 87.45 52.82 94.82 28.88 90.81 28.88"/><polygon class="cls-1" points="67.89 66.59 64.54 56.35 74.79 59.7 77.83 56.65 58.54 50.35 64.85 69.64 67.89 66.59"/><polygon class="cls-1" points="81.06 79.76 91.31 83.12 87.96 72.86 91 69.82 97.3 89.12 78.02 82.8 81.06 79.76"/><polygon class="cls-1" points="87.32 62.71 65.18 74.43 68.02 77.26 90.16 65.55 87.32 62.71"/><polygon class="cls-1" points="43.84 74.36 48.72 64.75 53.6 74.36 57.9 74.36 48.71 56.26 39.55 74.36 43.84 74.36"/><polygon class="cls-1" points="43.84 92.98 48.72 102.6 53.6 92.98 57.9 92.98 48.71 111.08 39.55 92.98 43.84 92.98"/><polygon class="cls-1" points="60.33 85.35 36.39 77.98 36.39 82 60.33 89.36 60.33 85.35"/><polygon class="cls-1" points="22.52 60.79 32.77 57.43 29.42 67.69 32.47 70.73 38.77 51.43 19.48 57.75 22.52 60.79"/><polygon class="cls-1" points="9.36 73.96 6 84.2 16.25 80.85 19.3 83.9 0 90.2 6.32 70.92 9.36 73.96"/><polygon class="cls-1" points="26.41 80.21 14.69 58.08 11.86 60.92 23.57 83.05 26.41 80.21"/><polygon class="cls-2" points="112.72 7.86 116.87 0.1 108.08 0.39 112.72 7.86"/><polygon class="cls-2" points="112.36 8.43 116.87 0 107.31 0.31 112.36 8.43"/><polygon class="cls-2" points="110.01 2 88.9 15.11 67.84 15.31 48.58 31.5 22.76 31.85 0 52.16 0 57.3 24.25 35.66 50.01 35.32 69.26 19.14 90.01 18.94 112.03 5.26 110.01 2"/></g></g></svg>
